<?xml version="1.0" encoding="utf-8"?>
<svg xmlns="http://www.w3.org/2000/svg" height="250" preserveAspectRatio="xMidYMid meet" version="1.0" viewBox="0 0 187.5 187.499992" width="250" zoomAndPan="magnify">
  <defs>
    <clipPath id="id1">
      <path clip-rule="nonzero" d="M 13 0 L 174 0 L 174 187 L 13 187 Z M 13 0"/>
    </clipPath>
  </defs>
  <g clip-path="url(#id1)">
    <path d="M 173.265625 143.523438 C 170.949219 130.164062 163.710938 114.074219 152.335938 96.988281 C 141.964844 81.410156 128.699219 65.722656 113.925781 51.542969 L 113.925781 39.90625 L 130.414062 13.769531 C 131.054688 12.757812 131.03125 11.464844 130.359375 10.476562 C 129.628906 9.40625 122.402344 0 93.832031 0 C 65.261719 0 58.035156 9.40625 57.304688 10.476562 C 56.632812 11.464844 56.609375 12.757812 57.246094 13.769531 L 73.734375 39.90625 L 73.734375 51.542969 C 58.960938 65.722656 45.695312 81.410156 35.324219 96.988281 C 23.953125 114.070312 16.714844 130.164062 14.398438 143.523438 C 12.492188 154.511719 15.507812 165.691406 22.671875 174.195312 C 29.78125 182.640625 40.199219 187.480469 51.25 187.480469 L 136.414062 187.480469 C 147.460938 187.480469 157.878906 182.640625 164.992188 174.195312 C 172.15625 165.691406 175.171875 154.511719 173.265625 143.523438 Z M 99.140625 42.042969 C 99.140625 42.042969 99.144531 42.042969 99.144531 42.042969 C 99.148438 42.042969 99.152344 42.042969 99.152344 42.042969 L 107.914062 42.042969 L 107.914062 49.8125 L 79.75 49.8125 L 79.75 42.042969 Z M 93.832031 6.007812 C 112.792969 6.007812 121.046875 10.40625 124.019531 12.644531 L 109.261719 36.035156 L 102.652344 36.035156 L 104.914062 21.480469 C 105.171875 19.84375 104.046875 18.308594 102.40625 18.050781 C 100.761719 17.796875 99.226562 18.921875 98.972656 20.558594 L 96.566406 36.035156 L 78.398438 36.035156 L 63.644531 12.644531 C 66.617188 10.40625 74.867188 6.007812 93.832031 6.007812 Z M 160.390625 170.328125 C 154.421875 177.410156 145.683594 181.472656 136.410156 181.472656 L 51.25 181.472656 C 41.976562 181.472656 33.238281 177.410156 27.269531 170.328125 C 21.253906 163.183594 18.71875 153.785156 20.324219 144.550781 C 24.5625 120.109375 47.136719 85.378906 77.949219 55.824219 L 109.714844 55.824219 C 140.523438 85.378906 163.101562 120.109375 167.339844 144.550781 C 168.941406 153.789062 166.410156 163.183594 160.390625 170.328125 Z M 160.390625 170.328125" fill="#1a2b63" fill-opacity="1" fill-rule="nonzero"/>
  </g>
  <path d="M 96.835938 123.542969 L 96.835938 103.964844 L 105.902344 103.964844 C 107.566406 103.964844 108.910156 102.621094 108.910156 100.960938 C 108.910156 99.300781 107.566406 97.957031 105.902344 97.957031 L 96.835938 97.957031 L 96.835938 92.636719 C 96.835938 90.976562 95.492188 89.632812 93.832031 89.632812 C 92.167969 89.632812 90.824219 90.976562 90.824219 92.636719 L 90.824219 98.058594 C 81.226562 98.933594 73.734375 105.613281 73.734375 113.703125 C 73.734375 121.792969 81.226562 128.476562 90.824219 129.351562 L 90.824219 148.929688 L 76.742188 148.929688 C 75.082031 148.929688 73.734375 150.273438 73.734375 151.933594 C 73.734375 153.589844 75.082031 154.9375 76.742188 154.9375 L 90.824219 154.9375 L 90.824219 159.578125 C 90.824219 161.238281 92.167969 162.582031 93.832031 162.582031 C 95.492188 162.582031 96.835938 161.238281 96.835938 159.578125 L 96.835938 154.835938 C 106.4375 153.960938 113.925781 147.28125 113.925781 139.191406 C 113.925781 131.101562 106.4375 124.417969 96.835938 123.542969 Z M 79.75 113.703125 C 79.75 108.871094 84.550781 104.851562 90.824219 104.097656 L 90.824219 123.3125 C 84.550781 122.554688 79.75 118.535156 79.75 113.703125 Z M 96.835938 148.796875 L 96.835938 129.582031 C 103.109375 130.335938 107.914062 134.355469 107.914062 139.1875 C 107.914062 144.023438 103.109375 148.042969 96.835938 148.796875 Z M 96.835938 148.796875" fill="#1a2b63" fill-opacity="1" fill-rule="nonzero"/>
</svg>