<?xml version="1.0" encoding="utf-8"?>
<svg xmlns="http://www.w3.org/2000/svg" height="250" preserveAspectRatio="xMidYMid meet" version="1.0" viewBox="0 0 187.5 187.499992" width="250" zoomAndPan="magnify">
  <defs>
    <clipPath id="id1">
      <path clip-rule="nonzero" d="M 22.265625 0 L 165.515625 0 L 165.515625 187 L 22.265625 187 Z M 22.265625 0"/>
    </clipPath>
    <clipPath id="id2">
      <path clip-rule="nonzero" d="M 53.890625 49.222656 L 133.390625 49.222656 L 133.390625 134.722656 L 53.890625 134.722656 Z M 53.890625 49.222656"/>
    </clipPath>
    <clipPath id="id3">
      <path clip-rule="nonzero" d="M 68.546875 50.941406 L 118.796875 50.941406 L 118.796875 136.441406 L 68.546875 136.441406 Z M 68.546875 50.941406"/>
    </clipPath>
  </defs>
  <path d="M 98.5625 124.21875 L 81.289062 124.21875 C 80.808594 124.21875 80.347656 124.125 79.90625 123.945312 C 79.460938 123.761719 79.070312 123.5 78.730469 123.160156 C 78.390625 122.824219 78.132812 122.433594 77.949219 121.988281 C 77.765625 121.546875 77.671875 121.085938 77.671875 120.609375 C 77.671875 120.128906 77.765625 119.667969 77.949219 119.226562 C 78.132812 118.785156 78.390625 118.394531 78.730469 118.054688 C 79.070312 117.71875 79.460938 117.457031 79.90625 117.273438 C 80.347656 117.089844 80.808594 117 81.289062 117 L 98.5625 117 C 99.253906 117 99.9375 116.929688 100.613281 116.796875 C 101.292969 116.664062 101.949219 116.464844 102.585938 116.199219 C 103.222656 115.9375 103.828125 115.613281 104.402344 115.230469 C 104.976562 114.847656 105.507812 114.414062 105.996094 113.925781 C 106.484375 113.4375 106.917969 112.910156 107.304688 112.335938 C 107.6875 111.761719 108.011719 111.160156 108.273438 110.523438 C 108.539062 109.886719 108.738281 109.230469 108.871094 108.554688 C 109.007812 107.878906 109.074219 107.195312 109.074219 106.507812 C 109.074219 105.820312 109.007812 105.136719 108.871094 104.460938 C 108.738281 103.785156 108.539062 103.128906 108.273438 102.492188 C 108.011719 101.855469 107.6875 101.253906 107.304688 100.679688 C 106.921875 100.105469 106.484375 99.578125 105.996094 99.089844 C 105.507812 98.601562 104.976562 98.167969 104.402344 97.785156 C 103.828125 97.402344 103.222656 97.078125 102.585938 96.816406 C 101.949219 96.550781 101.292969 96.355469 100.613281 96.21875 C 99.9375 96.085938 99.253906 96.019531 98.5625 96.019531 L 89.199219 96.019531 C 88.617188 96.015625 88.039062 95.988281 87.460938 95.929688 C 86.882812 95.875 86.308594 95.789062 85.738281 95.675781 C 85.167969 95.558594 84.605469 95.417969 84.050781 95.25 C 83.496094 95.082031 82.949219 94.886719 82.410156 94.664062 C 81.875 94.441406 81.351562 94.195312 80.839844 93.921875 C 80.324219 93.648438 79.828125 93.347656 79.34375 93.027344 C 78.863281 92.703125 78.398438 92.359375 77.949219 91.992188 C 77.5 91.625 77.070312 91.234375 76.65625 90.824219 C 76.246094 90.414062 75.855469 89.984375 75.488281 89.539062 C 75.121094 89.089844 74.773438 88.625 74.449219 88.140625 C 74.128906 87.660156 73.828125 87.164062 73.554688 86.652344 C 73.28125 86.140625 73.03125 85.617188 72.808594 85.082031 C 72.585938 84.546875 72.390625 84 72.222656 83.445312 C 72.054688 82.890625 71.914062 82.328125 71.796875 81.761719 C 71.683594 81.191406 71.597656 80.621094 71.542969 80.042969 C 71.484375 79.464844 71.453125 78.886719 71.453125 78.308594 L 71.453125 78.089844 C 71.453125 77.511719 71.484375 76.933594 71.542969 76.355469 C 71.597656 75.777344 71.683594 75.207031 71.796875 74.636719 C 71.914062 74.070312 72.054688 73.507812 72.222656 72.953125 C 72.390625 72.398438 72.585938 71.851562 72.808594 71.316406 C 73.03125 70.78125 73.28125 70.257812 73.554688 69.746094 C 73.828125 69.234375 74.128906 68.738281 74.449219 68.257812 C 74.773438 67.773438 75.121094 67.308594 75.488281 66.859375 C 75.855469 66.414062 76.246094 65.984375 76.65625 65.574219 C 77.070312 65.164062 77.5 64.773438 77.949219 64.40625 C 78.398438 64.039062 78.863281 63.695312 79.34375 63.371094 C 79.828125 63.050781 80.324219 62.75 80.839844 62.476562 C 81.351562 62.203125 81.875 61.957031 82.410156 61.734375 C 82.949219 61.511719 83.496094 61.316406 84.050781 61.148438 C 84.605469 60.980469 85.167969 60.839844 85.738281 60.722656 C 86.308594 60.609375 86.882812 60.523438 87.460938 60.46875 C 88.039062 60.410156 88.617188 60.382812 89.199219 60.378906 L 107.195312 60.378906 C 107.675781 60.378906 108.136719 60.472656 108.578125 60.65625 C 109.023438 60.839844 109.414062 61.097656 109.753906 61.4375 C 110.09375 61.777344 110.355469 62.167969 110.539062 62.609375 C 110.722656 63.050781 110.8125 63.511719 110.8125 63.992188 C 110.8125 64.46875 110.722656 64.929688 110.539062 65.371094 C 110.355469 65.8125 110.09375 66.203125 109.753906 66.542969 C 109.414062 66.882812 109.023438 67.140625 108.578125 67.324219 C 108.136719 67.507812 107.675781 67.601562 107.195312 67.601562 L 89.199219 67.601562 C 88.507812 67.601562 87.828125 67.667969 87.148438 67.804688 C 86.472656 67.9375 85.816406 68.136719 85.179688 68.402344 C 84.542969 68.667969 83.9375 68.988281 83.363281 69.371094 C 82.789062 69.753906 82.257812 70.191406 81.769531 70.675781 C 81.28125 71.164062 80.847656 71.691406 80.464844 72.265625 C 80.078125 72.839844 79.757812 73.441406 79.492188 74.078125 C 79.226562 74.714844 79.027344 75.371094 78.890625 76.046875 C 78.757812 76.71875 78.6875 77.402344 78.6875 78.089844 L 78.6875 78.308594 C 78.6875 78.996094 78.757812 79.679688 78.890625 80.351562 C 79.027344 81.027344 79.226562 81.683594 79.492188 82.320312 C 79.757812 82.957031 80.078125 83.558594 80.464844 84.132812 C 80.847656 84.707031 81.28125 85.234375 81.769531 85.722656 C 82.257812 86.207031 82.789062 86.644531 83.363281 87.027344 C 83.9375 87.410156 84.542969 87.730469 85.179688 87.996094 C 85.816406 88.261719 86.472656 88.460938 87.148438 88.59375 C 87.828125 88.730469 88.507812 88.796875 89.199219 88.796875 L 98.5625 88.796875 C 99.144531 88.796875 99.726562 88.828125 100.304688 88.882812 C 100.882812 88.941406 101.457031 89.023438 102.027344 89.136719 C 102.59375 89.25 103.160156 89.390625 103.714844 89.5625 C 104.269531 89.730469 104.816406 89.925781 105.355469 90.144531 C 105.890625 90.367188 106.417969 90.617188 106.929688 90.890625 C 107.441406 91.164062 107.9375 91.460938 108.421875 91.78125 C 108.90625 92.105469 109.371094 92.449219 109.820312 92.816406 C 110.269531 93.1875 110.699219 93.574219 111.113281 93.984375 C 111.523438 94.394531 111.914062 94.824219 112.28125 95.273438 C 112.648438 95.722656 112.996094 96.1875 113.316406 96.667969 C 113.640625 97.152344 113.941406 97.648438 114.214844 98.160156 C 114.488281 98.671875 114.734375 99.195312 114.957031 99.730469 C 115.179688 100.265625 115.375 100.8125 115.542969 101.367188 C 115.714844 101.921875 115.855469 102.484375 115.96875 103.054688 C 116.082031 103.621094 116.167969 104.195312 116.222656 104.773438 C 116.28125 105.347656 116.308594 105.929688 116.308594 106.507812 C 116.308594 107.089844 116.28125 107.667969 116.222656 108.242188 C 116.167969 108.820312 116.082031 109.394531 115.96875 109.964844 C 115.855469 110.53125 115.714844 111.09375 115.542969 111.648438 C 115.375 112.203125 115.179688 112.75 114.957031 113.285156 C 114.734375 113.820312 114.488281 114.34375 114.214844 114.855469 C 113.941406 115.367188 113.640625 115.863281 113.316406 116.347656 C 112.996094 116.828125 112.648438 117.296875 112.28125 117.742188 C 111.914062 118.191406 111.523438 118.621094 111.113281 119.03125 C 110.699219 119.441406 110.269531 119.832031 109.820312 120.199219 C 109.371094 120.566406 108.90625 120.910156 108.421875 121.234375 C 107.9375 121.554688 107.441406 121.855469 106.929688 122.128906 C 106.417969 122.402344 105.890625 122.648438 105.355469 122.871094 C 104.816406 123.09375 104.269531 123.289062 103.714844 123.457031 C 103.160156 123.625 102.59375 123.765625 102.027344 123.878906 C 101.457031 123.992188 100.882812 124.078125 100.304688 124.132812 C 99.726562 124.191406 99.144531 124.21875 98.5625 124.21875 Z M 98.5625 124.21875" fill="#1a2b63" fill-opacity="1" fill-rule="nonzero"/>
  <path d="M 93.035156 66.371094 C 92.558594 66.371094 92.09375 66.28125 91.652344 66.097656 C 91.210938 65.914062 90.816406 65.652344 90.480469 65.3125 C 90.140625 64.976562 89.878906 64.585938 89.695312 64.144531 C 89.511719 63.699219 89.417969 63.238281 89.417969 62.761719 L 89.417969 55.894531 C 89.417969 55.417969 89.511719 54.957031 89.695312 54.515625 C 89.878906 54.070312 90.140625 53.679688 90.480469 53.34375 C 90.816406 53.003906 91.210938 52.742188 91.652344 52.558594 C 92.09375 52.378906 92.558594 52.285156 93.035156 52.285156 C 93.515625 52.285156 93.976562 52.378906 94.421875 52.558594 C 94.863281 52.742188 95.253906 53.003906 95.59375 53.34375 C 95.933594 53.679688 96.195312 54.070312 96.378906 54.515625 C 96.5625 54.957031 96.652344 55.417969 96.652344 55.894531 L 96.652344 62.761719 C 96.652344 63.238281 96.5625 63.699219 96.378906 64.144531 C 96.195312 64.585938 95.933594 64.976562 95.59375 65.3125 C 95.253906 65.652344 94.863281 65.914062 94.421875 66.097656 C 93.976562 66.28125 93.515625 66.371094 93.035156 66.371094 Z M 93.035156 66.371094" fill="#1a2b63" fill-opacity="1" fill-rule="nonzero"/>
  <path d="M 93.035156 131.242188 C 92.558594 131.242188 92.09375 131.152344 91.652344 130.96875 C 91.210938 130.785156 90.816406 130.523438 90.480469 130.1875 C 90.140625 129.847656 89.878906 129.457031 89.695312 129.015625 C 89.511719 128.574219 89.417969 128.113281 89.417969 127.632812 L 89.417969 120.769531 C 89.417969 120.289062 89.511719 119.828125 89.695312 119.386719 C 89.878906 118.945312 90.140625 118.554688 90.480469 118.214844 C 90.816406 117.875 91.210938 117.617188 91.652344 117.433594 C 92.09375 117.25 92.558594 117.15625 93.035156 117.15625 C 93.515625 117.15625 93.976562 117.25 94.421875 117.433594 C 94.863281 117.617188 95.253906 117.875 95.59375 118.214844 C 95.933594 118.554688 96.195312 118.945312 96.378906 119.386719 C 96.5625 119.828125 96.652344 120.289062 96.652344 120.769531 L 96.652344 127.632812 C 96.652344 128.113281 96.5625 128.574219 96.378906 129.015625 C 96.195312 129.457031 95.933594 129.847656 95.59375 130.1875 C 95.253906 130.523438 94.863281 130.785156 94.421875 130.96875 C 93.976562 131.152344 93.515625 131.242188 93.035156 131.242188 Z M 93.035156 131.242188" fill="#1a2b63" fill-opacity="1" fill-rule="nonzero"/>
  <g clip-path="url(#id1)">
    <path d="M 93.882812 187.453125 C 93.152344 187.453125 92.484375 187.25 91.878906 186.847656 L 55.292969 162.558594 C 52.765625 160.878906 50.347656 159.050781 48.042969 157.074219 C 45.738281 155.097656 43.5625 152.984375 41.515625 150.742188 C 39.472656 148.496094 37.574219 146.136719 35.820312 143.660156 C 34.066406 141.179688 32.472656 138.605469 31.039062 135.933594 C 29.601562 133.257812 28.335938 130.507812 27.242188 127.675781 C 26.144531 124.847656 25.226562 121.964844 24.484375 119.019531 C 23.746094 116.078125 23.191406 113.101562 22.816406 110.09375 C 22.445312 107.082031 22.257812 104.058594 22.257812 101.027344 L 22.257812 32.695312 C 22.257812 32.222656 22.347656 31.769531 22.527344 31.332031 C 22.703125 30.894531 22.960938 30.507812 23.289062 30.167969 C 23.621094 29.832031 24.003906 29.570312 24.4375 29.382812 C 24.871094 29.195312 25.324219 29.09375 25.800781 29.085938 C 39.941406 28.789062 53.636719 25.960938 65.410156 20.910156 C 76.730469 16.046875 85.851562 9.335938 91.789062 1.496094 C 91.957031 1.273438 92.148438 1.074219 92.363281 0.894531 C 92.578125 0.714844 92.8125 0.5625 93.0625 0.441406 C 93.3125 0.316406 93.574219 0.222656 93.84375 0.15625 C 94.117188 0.09375 94.394531 0.0625 94.671875 0.0625 C 94.953125 0.0625 95.230469 0.09375 95.5 0.15625 C 95.773438 0.222656 96.035156 0.316406 96.285156 0.441406 C 96.535156 0.5625 96.769531 0.714844 96.984375 0.894531 C 97.199219 1.074219 97.390625 1.273438 97.558594 1.496094 C 109.714844 17.554688 134.414062 28.113281 162.011719 29.042969 C 162.480469 29.0625 162.929688 29.164062 163.355469 29.355469 C 163.785156 29.542969 164.164062 29.808594 164.488281 30.144531 C 164.816406 30.480469 165.066406 30.867188 165.242188 31.300781 C 165.417969 31.734375 165.503906 32.183594 165.503906 32.652344 L 165.503906 101.027344 C 165.503906 104.058594 165.320312 107.082031 164.945312 110.09375 C 164.574219 113.101562 164.015625 116.078125 163.277344 119.019531 C 162.535156 121.960938 161.617188 124.847656 160.523438 127.675781 C 159.425781 130.507812 158.160156 133.257812 156.726562 135.933594 C 155.289062 138.605469 153.695312 141.179688 151.941406 143.660156 C 150.191406 146.136719 148.289062 148.496094 146.246094 150.742188 C 144.203125 152.984375 142.027344 155.097656 139.722656 157.074219 C 137.417969 159.050781 135 160.878906 132.46875 162.558594 L 95.886719 186.847656 C 95.277344 187.25 94.609375 187.453125 93.882812 187.453125 Z M 29.492188 36.179688 L 29.492188 101.027344 C 29.492188 103.765625 29.660156 106.492188 29.996094 109.207031 C 30.332031 111.921875 30.835938 114.609375 31.503906 117.261719 C 32.171875 119.917969 33 122.519531 33.988281 125.074219 C 34.976562 127.625 36.117188 130.109375 37.414062 132.523438 C 38.710938 134.933594 40.148438 137.257812 41.730469 139.492188 C 43.3125 141.730469 45.023438 143.859375 46.871094 145.886719 C 48.714844 147.910156 50.675781 149.816406 52.757812 151.597656 C 54.835938 153.382812 57.019531 155.03125 59.300781 156.546875 L 93.882812 179.507812 L 128.460938 156.546875 C 130.746094 155.03125 132.925781 153.382812 135.007812 151.597656 C 137.085938 149.816406 139.046875 147.910156 140.894531 145.886719 C 142.738281 143.859375 144.453125 141.730469 146.035156 139.496094 C 147.617188 137.257812 149.054688 134.933594 150.347656 132.523438 C 151.644531 130.109375 152.785156 127.628906 153.777344 125.074219 C 154.765625 122.519531 155.59375 119.917969 156.261719 117.261719 C 156.929688 114.609375 157.429688 111.921875 157.765625 109.207031 C 158.101562 106.492188 158.273438 103.765625 158.273438 101.027344 L 158.273438 36.09375 C 144.773438 35.253906 131.757812 32.222656 120.433594 27.261719 C 109.929688 22.660156 101.113281 16.515625 94.675781 9.34375 C 80.800781 24.8125 56.515625 34.847656 29.492188 36.179688 Z M 29.492188 36.179688" fill="#1a2b63" fill-opacity="1" fill-rule="nonzero"/>
  </g>
  <g clip-path="url(#id2)">
    <path d="M 53.890625 49.226562 L 133.390625 49.226562 L 133.390625 134.71875 L 53.890625 134.71875 L 53.890625 49.226562" fill="#ffffff" fill-opacity="1" fill-rule="nonzero"/>
  </g>
  <g clip-path="url(#id3)">
    <path d="M 173.398438 112.050781 C 171.082031 98.691406 163.84375 82.601562 152.46875 65.515625 C 142.097656 49.9375 128.832031 34.25 114.0625 20.070312 L 114.0625 8.433594 L 130.550781 -17.703125 C 131.1875 -18.714844 131.164062 -20.007812 130.492188 -20.992188 C 129.761719 -22.066406 122.535156 -31.472656 93.964844 -31.472656 C 65.394531 -31.472656 58.167969 -22.066406 57.4375 -20.992188 C 56.765625 -20.007812 56.742188 -18.714844 57.378906 -17.703125 L 73.867188 8.433594 L 73.867188 20.070312 C 59.09375 34.25 45.832031 49.9375 35.460938 65.515625 C 24.085938 82.601562 16.847656 98.691406 14.53125 112.050781 C 12.625 123.039062 15.640625 134.21875 22.804688 142.722656 C 29.914062 151.167969 40.332031 156.007812 51.382812 156.007812 L 136.546875 156.007812 C 147.597656 156.007812 158.011719 151.167969 165.125 142.722656 C 172.289062 134.21875 175.304688 123.039062 173.398438 112.050781 Z M 99.273438 10.570312 C 99.273438 10.570312 99.277344 10.570312 99.277344 10.570312 C 99.28125 10.570312 99.285156 10.570312 99.285156 10.570312 L 108.046875 10.570312 L 108.046875 18.339844 L 79.882812 18.339844 L 79.882812 10.570312 Z M 93.964844 -25.464844 C 112.925781 -25.464844 121.179688 -21.066406 124.152344 -18.828125 L 109.394531 4.5625 L 102.785156 4.5625 L 105.046875 -9.988281 C 105.304688 -11.628906 104.179688 -13.164062 102.539062 -13.421875 C 100.894531 -13.675781 99.359375 -12.550781 99.105469 -10.914062 L 96.699219 4.5625 L 78.535156 4.5625 L 63.777344 -18.828125 C 66.75 -21.066406 75 -25.464844 93.964844 -25.464844 Z M 160.523438 138.855469 C 154.558594 145.9375 145.816406 150 136.546875 150 L 51.382812 150 C 42.109375 150 33.371094 145.9375 27.402344 138.855469 C 21.386719 131.710938 18.855469 122.316406 20.457031 113.078125 C 24.695312 88.636719 47.269531 53.90625 78.082031 24.351562 L 109.847656 24.351562 C 140.660156 53.90625 163.234375 88.640625 167.472656 113.078125 C 169.074219 122.316406 166.542969 131.710938 160.523438 138.855469 Z M 160.523438 138.855469" fill="#1a2b63" fill-opacity="1" fill-rule="nonzero"/>
  </g>
  <path d="M 96.972656 92.070312 L 96.972656 72.492188 L 106.039062 72.492188 C 107.699219 72.492188 109.042969 71.148438 109.042969 69.488281 C 109.042969 67.832031 107.699219 66.484375 106.039062 66.484375 L 96.972656 66.484375 L 96.972656 61.164062 C 96.972656 59.503906 95.625 58.160156 93.964844 58.160156 C 92.304688 58.160156 90.957031 59.503906 90.957031 61.164062 L 90.957031 66.585938 C 81.359375 67.460938 73.867188 74.144531 73.867188 82.234375 C 73.867188 90.324219 81.359375 97.003906 90.957031 97.878906 L 90.957031 117.457031 L 76.875 117.457031 C 75.214844 117.457031 73.867188 118.800781 73.867188 120.460938 C 73.867188 122.121094 75.214844 123.464844 76.875 123.464844 L 90.957031 123.464844 L 90.957031 128.105469 C 90.957031 129.765625 92.304688 131.109375 93.964844 131.109375 C 95.625 131.109375 96.972656 129.765625 96.972656 128.105469 L 96.972656 123.363281 C 106.570312 122.488281 114.0625 115.808594 114.0625 107.71875 C 114.0625 99.628906 106.570312 92.945312 96.972656 92.070312 Z M 79.882812 82.230469 C 79.882812 77.398438 84.683594 73.378906 90.957031 72.625 L 90.957031 91.839844 C 84.683594 91.085938 79.882812 87.066406 79.882812 82.230469 Z M 96.972656 117.324219 L 96.972656 98.109375 C 103.242188 98.863281 108.046875 102.882812 108.046875 107.71875 C 108.046875 112.550781 103.242188 116.570312 96.972656 117.324219 Z M 96.972656 117.324219" fill="#1a2b63" fill-opacity="1" fill-rule="nonzero"/>
</svg>