<?xml version="1.0" encoding="utf-8"?>
<svg xmlns="http://www.w3.org/2000/svg" height="250" preserveAspectRatio="xMidYMid meet" version="1.0" viewBox="0 0 187.5 187.499992" width="250" zoomAndPan="magnify">
  <defs>
    <clipPath id="id1">
      <path clip-rule="nonzero" d="M 0 84 L 187 84 L 187 186.304688 L 0 186.304688 Z M 0 84"/>
    </clipPath>
    <clipPath id="id2">
      <path clip-rule="nonzero" d="M 140 1.054688 L 178 1.054688 L 178 141 L 140 141 Z M 140 1.054688"/>
    </clipPath>
  </defs>
  <g clip-path="url(#id1)">
    <path d="M 187.488281 96.089844 L 187.488281 174.652344 C 187.488281 181.050781 182.296875 186.238281 175.898438 186.238281 L 11.699219 186.238281 C 5.300781 186.238281 0.109375 181.050781 0.109375 174.652344 L 0.109375 96.089844 C 0.109375 89.71875 5.328125 84.507812 11.699219 84.507812 L 128.964844 84.507812 C 131.042969 84.507812 132.734375 86.199219 132.734375 88.277344 C 132.734375 90.359375 131.042969 92.046875 128.964844 92.046875 L 11.699219 92.046875 C 9.480469 92.046875 7.65625 93.867188 7.65625 96.089844 L 7.65625 174.652344 C 7.65625 176.890625 9.46875 178.695312 11.699219 178.695312 L 175.898438 178.695312 C 178.128906 178.695312 179.941406 176.890625 179.941406 174.652344 L 179.941406 96.089844 C 179.941406 93.867188 178.117188 92.046875 175.898438 92.046875 L 175.324219 92.046875 C 173.238281 92.046875 171.546875 90.359375 171.546875 88.277344 C 171.546875 86.199219 173.238281 84.507812 175.324219 84.507812 L 175.898438 84.507812 C 182.269531 84.507812 187.488281 89.71875 187.488281 96.089844" fill="#1a2b63" fill-opacity="1" fill-rule="nonzero"/>
  </g>
  <g clip-path="url(#id2)">
    <path d="M 156.335938 11.851562 L 156.335938 51.027344 L 147.945312 51.027344 L 147.945312 12.335938 C 147.945312 11.339844 149.699219 8.683594 151.023438 8.683594 L 153.558594 8.683594 C 154.40625 8.683594 155.734375 10.011719 156.367188 11.402344 C 156.335938 11.550781 156.335938 11.703125 156.335938 11.851562 Z M 156.335938 117.894531 L 152.292969 127.363281 L 147.945312 117.953125 L 147.945312 58.691406 L 156.335938 58.691406 Z M 177.375 20.570312 C 177.375 13.601562 172.152344 7.871094 165.179688 7.238281 L 162.707031 7.027344 C 160.835938 3.769531 157.511719 1.027344 153.53125 1.027344 L 151.023438 1.027344 C 148.519531 1.027344 146.015625 2.171875 143.992188 4.222656 C 141.699219 6.542969 140.21875 9.769531 140.28125 12.394531 L 140.28125 118.800781 C 140.28125 119.34375 140.402344 119.917969 140.609375 120.398438 L 148.941406 138.375 C 149.578125 139.730469 150.9375 140.574219 152.414062 140.574219 C 152.441406 140.574219 152.441406 140.574219 152.472656 140.574219 C 153.980469 140.574219 155.339844 139.671875 155.945312 138.253906 L 163.671875 120.1875 C 163.882812 119.703125 164.003906 119.191406 164.003906 118.679688 L 164.003906 14.839844 L 164.515625 14.871094 C 167.472656 15.140625 169.707031 17.582031 169.707031 20.570312 L 169.738281 48.796875 C 169.738281 50.90625 171.457031 52.625 173.574219 52.625 C 175.683594 52.625 177.402344 50.90625 177.402344 48.796875 L 177.375 20.570312" fill="#1a2b63" fill-opacity="1" fill-rule="nonzero"/>
  </g>
  <path d="M 82.890625 114.023438 L 26.53125 114.023438 C 24.445312 114.023438 22.753906 112.339844 22.753906 110.253906 C 22.753906 108.171875 24.445312 106.484375 26.53125 106.484375 L 82.890625 106.484375 C 84.976562 106.484375 86.664062 108.171875 86.664062 110.253906 C 86.664062 112.339844 84.976562 114.023438 82.890625 114.023438" fill="#1a2b63" fill-opacity="1" fill-rule="nonzero"/>
  <path d="M 104.121094 130.335938 L 26.53125 130.335938 C 24.445312 130.335938 22.753906 128.652344 22.753906 126.566406 C 22.753906 124.484375 24.445312 122.796875 26.53125 122.796875 L 104.121094 122.796875 C 106.203125 122.796875 107.894531 124.484375 107.894531 126.566406 C 107.894531 128.652344 106.203125 130.335938 104.121094 130.335938" fill="#1a2b63" fill-opacity="1" fill-rule="nonzero"/>
  <path d="M 80.25 168.625 C 78.324219 168.625 76.679688 167.164062 76.492188 165.210938 C 76.023438 160.214844 77.8125 154.472656 80.953125 150.925781 C 83.289062 148.277344 86.277344 146.828125 89.578125 146.734375 C 96.472656 146.445312 100.949219 151.574219 103.085938 157.921875 C 109.066406 153.921875 117.601562 151.285156 124.90625 157.8125 C 126.460938 159.203125 126.59375 161.589844 125.203125 163.140625 C 123.8125 164.6875 121.429688 164.816406 119.875 163.433594 C 113.011719 157.292969 103.539062 167.320312 103.445312 167.421875 C 102.429688 168.515625 100.863281 168.894531 99.457031 168.417969 C 98.042969 167.933594 97.054688 166.667969 96.925781 165.183594 C 96.59375 161.382812 94.707031 154.269531 89.933594 154.269531 C 89.886719 154.269531 89.839844 154.269531 89.796875 154.269531 C 88.601562 154.304688 87.554688 154.84375 86.601562 155.917969 C 84.582031 158.203125 83.765625 161.964844 84.007812 164.5 C 84.207031 166.570312 82.683594 168.410156 80.609375 168.605469 C 80.488281 168.617188 80.367188 168.625 80.25 168.625" fill="#1a2b63" fill-opacity="1" fill-rule="nonzero"/>
</svg>